HIERARCHY
ROOT Hips
{
	OFFSET 0.000000 0.000000 0.000000 
	CHANNELS 6 Xposition Yposition Zposition Yrotation Zrotation Xrotation 
	JOINT Lumbar
	{
		OFFSET 0.000000 0.000000 0.000000 
		CHANNELS 3 Zrotation Xrotation Yrotation
		JOINT Neck
		{
			OFFSET 0.000000 0.445665 0.000000 
			CHANNELS 3 Zrotation Xrotation Yrotation
			End Site
			{
				OFFSET 0.000000 0.227535 0.000000 
			}
		}
		JOINT RightShoulder
		{
			OFFSET 0.019635 0.377685 0.194865 
			CHANNELS 3 Zrotation Xrotation Yrotation
			JOINT RightElbow
			{
				OFFSET 0.000000 -0.243375 0.000000 
				CHANNELS 2 Zrotation Yrotation
				JOINT RightWrist
				{
					OFFSET 0.000000 -0.264825 0.000000 
					CHANNELS 2 Zrotation Xrotation
					End Site
					{
						OFFSET 0.006600 -0.176220 0.000990 
					}
				}
			}
		}
		JOINT LeftShoulder
		{
			OFFSET 0.019635 0.377685 -0.194865 
			CHANNELS 3 Zrotation Xrotation Yrotation
			JOINT LeftElbow
			{
				OFFSET 0.000000 -0.243375 0.000000 
				CHANNELS 2 Zrotation Yrotation
				JOINT LeftWrist
				{
					OFFSET 0.000000 -0.264825 0.000000 
					CHANNELS 2 Zrotation Xrotation
					End Site
					{
						OFFSET 0.006600 -0.176220 -0.000990 
					}
				}
			}
		}
	}
	JOINT RightHip
	{
		OFFSET 0.052140 -0.069960 0.075570 
		CHANNELS 3 Zrotation Xrotation Yrotation
		JOINT RightKnee
		{
			OFFSET 0.000000 -0.402270 0.000000 
			CHANNELS 1 Zrotation
			JOINT RightAnkle
			{
				OFFSET 0.000000 -0.404085 0.000000 
				CHANNELS 3 Zrotation Xrotation Yrotation
				End Site
				{
					OFFSET 0.204105 -0.089430 0.008415 
				}
			}
		}
	}
	JOINT LeftHip
	{
		OFFSET 0.052140 -0.069960 -0.075570 
		CHANNELS 3 Zrotation Xrotation Yrotation
		JOINT LeftKnee
		{
			OFFSET 0.000000 -0.402270 0.000000 
			CHANNELS 1 Zrotation
			JOINT LeftAnkle
			{
				OFFSET 0.000000 -0.404085 0.000000 
				CHANNELS 3 Zrotation Xrotation Yrotation
				End Site
				{
					OFFSET 0.204105 -0.089430 -0.008415 
				}
			}
		}
	}
}
MOTION
Frames: 19
Frame Time: 0.02
-1.09728 0.41329 -0.14495 523.17856 0 6.30147 10.98807 23.15854 -6.51427 -44.15008 -13.50824 -19.25656 67.42181 2.75277 20.8619 108.30194 137.82452 -69.27518 -10.91541 123.2337 36.09139 -53.39993 110.33913 -147.49309 -31.90815 16.62367 8.62309 -14.72803 13.49576 -117.6308 17.70351 9.03689 5.81869 74.60132 -4.8431 8.23081 -119.90117 19.74931 26.30602 13.14744
-1.09345 0.41305 -0.14759 523.37251 0 6.41387 9.95763 22.66248 -6.26733 -43.90059 -13.6304 -19.43234 67.5368 2.68039 20.54537 108.68027 137.6092 -69.2864 -10.85725 123.08086 36.58289 -53.26617 110.76681 -145.87476 -32.80648 15.91092 8.96661 -14.57811 13.3049 -118.12487 17.68822 9.10025 5.90356 74.86112 -4.85785 7.89739 -119.75394 19.74313 26.0958 12.76127
-1.08839 0.41254 -0.15032 523.6504 0 6.51114 8.74144 22.05311 -6.02951 -43.56065 -13.73788 -19.61561 67.77369 2.58362 20.19986 109.05713 137.33538 -69.29886 -10.78287 122.91726 37.25786 -53.18277 111.31029 -143.9529 -33.95257 15.06852 9.4314 -14.3958 13.08234 -118.7573 17.66228 9.21196 6.04912 75.23647 -4.86885 7.53451 -119.56365 19.73598 25.83218 12.31397
-1.08376 0.41217 -0.15299 523.89852 0 6.61641 7.59071 21.49146 -5.79683 -43.23174 -13.83054 -19.76857 67.97326 2.46027 19.88469 109.435 137.10391 -69.31075 -10.72021 122.73768 37.86217 -53.07418 111.79472 -142.14826 -35.02019 14.28322 9.84562 -14.22774 12.87262 -119.32651 17.6427 9.30446 6.16698 75.56295 -4.8827 7.18825 -119.37836 19.72928 25.58242 11.88781
-1.07961 0.41173 -0.15574 524.11335 0 6.71691 6.51555 20.944 -5.52329 -43.02861 -14.01571 -20.03504 68.09538 2.49731 19.49329 109.81674 136.80805 -69.32663 -10.63998 122.64751 38.41726 -52.9737 112.30668 -140.40946 -35.95035 13.49773 10.24117 -14.06025 12.6671 -119.89827 17.61756 9.38585 6.28412 75.87588 -4.89199 6.82674 -119.25207 19.72269 25.38127 11.48707
-1.0742 0.41137 -0.15835 524.4178 0 6.82413 5.24211 20.34044 -5.33789 -42.5432 -14.00332 -20.06747 68.4084 2.19133 19.25631 110.18805 136.62941 -69.32957 -10.59141 122.36468 39.11078 -52.86568 112.7877 -138.47843 -37.21742 12.68759 10.70354 -13.88493 12.44506 -120.49685 17.60107 9.5013 6.41762 76.24365 -4.90994 6.49124 -118.99376 19.71538 25.05908 11.01874
-1.06555 0.4113 -0.16049 524.93452 0 6.94892 3.44856 19.61356 -5.39143 -41.29229 -13.4586 -19.44455 69.21581 0.97787 19.43901 110.53018 136.81618 -69.33996 -10.64421 121.59567 40.21496 -52.7655 113.16645 -135.9836 -39.42445 11.80771 11.32883 -13.68954 12.1996 -121.13896 17.61207 9.70323 6.58164 76.73568 -4.95025 6.22736 -118.37983 19.70828 24.48138 10.39286
-1.05569 0.41131 -0.16251 525.54046 0 7.08172 1.46623 18.83391 -5.5344 -39.76275 -12.71451 -18.58712 70.2114 -0.58479 19.78062 110.86094 137.11822 -69.33018 -10.72775 120.62664 41.43883 -52.64987 113.50802 -133.32751 -41.94856 10.91442 12.01551 -13.48853 11.93645 -121.80233 17.63185 9.93687 6.76008 77.27822 -4.99946 5.99229 -117.63535 19.69978 23.77194 9.69926
-1.04643 0.41128 -0.16462 526.11506 0 7.21398 -0.41819 18.07595 -5.63757 -38.36524 -12.05413 -17.84176 71.12335 -2.01108 20.0594 111.19698 137.34914 -69.29982 -10.79052 119.71975 42.56004 -52.5142 113.85914 -130.81718 -44.28179 10.04985 12.66909 -13.29456 11.67246 -122.45397 17.64683 10.15326 6.93212 77.79698 -5.04654 5.74891 -116.95174 19.69112 23.0796 9.02761
-1.03691 0.41128 -0.16655 526.65504 0 7.333 -2.36272 17.32289 -5.73576 -36.93868 -11.41874 -17.07348 72.03318 -3.3491 20.29919 111.53378 137.65571 -69.39089 -10.88081 118.92902 43.89102 -52.49123 114.24524 -127.98988 -46.82239 9.08516 13.34968 -13.08112 11.44475 -123.12012 17.66482 10.3836 7.10604 78.32429 -5.08673 5.48388 -116.25925 19.68728 22.56478 8.38988
-1.02768 0.41123 -0.16883 527.2856 0 7.48123 -4.22141 16.54958 -5.86757 -35.51148 -10.68867 -16.29714 72.98856 -4.94715 20.65619 111.8648 137.83459 -69.2295 -10.92209 117.85507 44.81156 -52.23324 114.54824 -125.78873 -49.00161 8.32755 13.98597 -12.90657 11.13774 -123.7581 17.67883 10.59146 7.27813 78.84302 -5.14178 5.27171 -115.55588 19.67123 21.65106 7.66768
-1.01939 0.41101 -0.17208 528.15754 0 7.71203 -5.82139 15.72522 -6.05184 -34.11844 -9.70662 -15.55658 74.03996 -7.23255 21.31676 112.19538 137.61746 -68.33011 -10.81355 115.99584 44.56521 -51.29526 114.62919 -125.35646 -50.11664 8.14596 14.49301 -12.84739 10.6159 -124.32236 17.67925 10.73194 7.44606 79.33548 -5.24979 5.19402 -114.84571 19.63807 19.65755 6.71696
-1.01146 0.41075 -0.17568 529.11451 0 7.97122 -7.32267 14.88432 -6.26997 -32.74095 -8.64325 -14.81632 75.12699 -9.7569 22.08668 112.51821 137.27058 -67.18558 -10.65591 113.86841 43.90201 -50.12737 114.62742 -125.56129 -50.85346 8.17376 14.95111 -12.82638 10.015 -124.85497 17.67552 10.84804 7.61046 79.81499 -5.36968 5.16946 -114.13106 19.59001 17.27079 5.68635
-1.00346 0.41051 -0.17914 530.02373 0 8.21507 -8.85243 14.05694 -6.48504 -31.37781 -7.64334 -14.07486 76.18653 -12.13623 22.79403 112.83616 136.99389 -66.18367 -10.52555 111.89789 43.43089 -49.08752 114.66418 -125.4759 -51.75509 8.10578 15.42583 -12.78387 9.45071 -125.39544 17.67402 10.97341 7.77337 80.29361 -5.47508 5.12367 -113.4242 19.53763 15.06943 4.70006
-0.99503 0.41024 -0.1825 530.97526 0 8.46983 -10.45908 13.20256 -6.6524 -29.91405 -6.52586 -13.32777 77.30071 -14.68289 23.56022 113.18893 136.67548 -65.05047 -10.37574 109.77202 42.95097 -47.94841 114.69623 -125.38805 -52.69872 8.03984 15.92696 -12.75913 8.88325 -125.96477 17.67131 11.10742 7.95019 80.80328 -5.61977 5.06671 -112.68795 19.53051 12.82936 3.67648
-0.9876 0.41004 -0.18616 531.8568 0 8.70805 -11.87836 12.40086 -6.92448 -28.66772 -5.63493 -12.59799 78.30671 -16.93152 24.22904 113.46779 136.40954 -64.13126 -10.25379 107.90925 42.39123 -46.96076 114.71833 -125.45818 -53.45974 8.01962 16.36008 -12.70596 8.30343 -126.46555 17.67013 11.21739 8.09664 81.24378 -5.68461 5.04508 -112.01422 19.4275 10.58557 2.71382
-0.98278 0.41006 -0.19054 532.53152 0 8.89738 -12.81346 11.75269 -7.48992 -28.01553 -5.40443 -11.89599 79.00699 -18.31172 24.59019 113.54181 136.3386 -63.87637 -10.226 106.83465 41.6908 -46.45501 114.73795 -125.81509 -53.81644 8.07441 16.62119 -12.56991 7.71273 -126.78933 17.67296 11.26521 8.16304 81.50216 -5.53253 5.1094 -111.5098 19.04764 8.36904 1.93022
-0.97898 0.41015 -0.1952 533.13119 0 9.06819 -13.56032 11.15806 -8.15664 -27.58367 -5.40298 -11.21634 79.59569 -19.3797 24.85085 113.54233 136.3213 -63.84298 -10.22692 106.03582 40.92764 -46.10815 114.74961 -126.30863 -53.99919 8.1681 16.81429 -12.40309 7.11184 -127.04394 17.6776 11.28974 8.19849 81.69 -5.2987 5.20695 -111.07024 18.57525 6.17632 1.21415
-0.97475 0.41021 -0.19975 533.75986 0 9.24524 -14.38698 10.536 -8.76859 -27.05376 -5.2878 -10.54062 80.23362 -20.58019 25.16479 113.57823 136.2664 -63.6994 -10.21102 105.1144 40.20762 -45.68395 114.7621 -126.73625 -54.25534 8.24406 17.03593 -12.24702 6.51301 -127.32752 17.68225 11.32604 8.24596 81.9061 -5.09767 5.28831 -110.60414 18.15483 4.00886 0.47136
